# xmcd CD database file
#
# Track frame offsets:
#	150
#	24219
#	41735
#	59433
#	81674
#	100095
#	125240
#	146821
#	173020
#	209914
#
# Disc length: 3156 seconds
#
# Revision: 0
# Processed by: cddbd v1.5PL3 Copyright (c) Steve Scherf et al.
# Submitted via: CDex 1.51
#
DISCID=980c520a
DTITLE=The Bad Plus - These Are the Vistas
DYEAR=2003
DGENRE=Jazz
TTITLE0=1972 Bronze Medalist
TTITLE1=Big Eater
TTITLE2=Boo-Wah
TTITLE3=Everywhere You Turn
TTITLE4=Flim
TTITLE5=Guilty
TTITLE6=Heart of Glass
TTITLE7=Keep the Bugs Off Your Glass and the Bear Off Your Ass
TTITLE8=Silence is the Question
TTITLE9=Smells Like Teen Spirit
EXTD=YEAR: 2003
EXTT0=
EXTT1=
EXTT2=
EXTT3=
EXTT4=
EXTT5=
EXTT6=
EXTT7=
EXTT8=
EXTT9=
PLAYORDER=
